<mxfile host="app.diagrams.net" modified="2023-06-01T10:35:42.143Z" agent="Mozilla/5.0 (Windows NT 10.0; Win64; x64) AppleWebKit/537.36 (KHTML, like Gecko) Chrome/113.0.0.0 Safari/537.36" etag="OO9svheZLz7HSlYq-qjJ" version="21.3.6" type="onedrive">
  <diagram id="C5RBs43oDa-KdzZeNtuy" name="Page-1">
    <mxGraphModel grid="1" page="1" gridSize="10" guides="1" tooltips="1" connect="1" arrows="1" fold="1" pageScale="1" pageWidth="827" pageHeight="1169" math="0" shadow="0">
      <root>
        <mxCell id="WIyWlLk6GJQsqaUBKTNV-0" />
        <mxCell id="WIyWlLk6GJQsqaUBKTNV-1" parent="WIyWlLk6GJQsqaUBKTNV-0" />
        <mxCell id="vjjjvio6U8Lt8Vp93TGe-2" value="FizzBuzz - Program Flowchart" style="text;html=1;align=center;verticalAlign=middle;resizable=0;points=[];autosize=1;strokeColor=none;fillColor=none;fontSize=24;fontStyle=1" vertex="1" parent="WIyWlLk6GJQsqaUBKTNV-1">
          <mxGeometry x="240" y="10" width="360" height="40" as="geometry" />
        </mxCell>
        <mxCell id="AtgH60uLK4HLd8rCisxl-3" value="START" style="ellipse;whiteSpace=wrap;html=1;" vertex="1" parent="WIyWlLk6GJQsqaUBKTNV-1">
          <mxGeometry x="340" y="60" width="121" height="80" as="geometry" />
        </mxCell>
        <mxCell id="AtgH60uLK4HLd8rCisxl-9" value="" style="edgeStyle=orthogonalEdgeStyle;rounded=0;orthogonalLoop=1;jettySize=auto;html=1;" edge="1" parent="WIyWlLk6GJQsqaUBKTNV-1" source="AtgH60uLK4HLd8rCisxl-4" target="AtgH60uLK4HLd8rCisxl-8">
          <mxGeometry relative="1" as="geometry" />
        </mxCell>
        <mxCell id="AtgH60uLK4HLd8rCisxl-4" value="While TRUE" style="rhombus;whiteSpace=wrap;html=1;" vertex="1" parent="WIyWlLk6GJQsqaUBKTNV-1">
          <mxGeometry x="350.75" y="170" width="99.5" height="80" as="geometry" />
        </mxCell>
        <mxCell id="AtgH60uLK4HLd8rCisxl-5" value="" style="endArrow=classic;html=1;rounded=0;exitX=0.5;exitY=1;exitDx=0;exitDy=0;entryX=0.5;entryY=0;entryDx=0;entryDy=0;" edge="1" parent="WIyWlLk6GJQsqaUBKTNV-1" source="AtgH60uLK4HLd8rCisxl-3" target="AtgH60uLK4HLd8rCisxl-4">
          <mxGeometry width="50" height="50" relative="1" as="geometry">
            <mxPoint x="390" y="420" as="sourcePoint" />
            <mxPoint x="440" y="370" as="targetPoint" />
          </mxGeometry>
        </mxCell>
        <mxCell id="AtgH60uLK4HLd8rCisxl-8" value="Ask user to enter a whole number" style="whiteSpace=wrap;html=1;" vertex="1" parent="WIyWlLk6GJQsqaUBKTNV-1">
          <mxGeometry x="341" y="280" width="120" height="60" as="geometry" />
        </mxCell>
        <mxCell id="AtgH60uLK4HLd8rCisxl-16" value="" style="endArrow=none;html=1;rounded=0;entryX=0.5;entryY=1;entryDx=0;entryDy=0;" edge="1" parent="WIyWlLk6GJQsqaUBKTNV-1" target="AtgH60uLK4HLd8rCisxl-8">
          <mxGeometry width="50" height="50" relative="1" as="geometry">
            <mxPoint x="401" y="400" as="sourcePoint" />
            <mxPoint x="440" y="370" as="targetPoint" />
          </mxGeometry>
        </mxCell>
        <mxCell id="AtgH60uLK4HLd8rCisxl-17" value="" style="endArrow=classic;html=1;rounded=0;" edge="1" parent="WIyWlLk6GJQsqaUBKTNV-1" target="AtgH60uLK4HLd8rCisxl-20">
          <mxGeometry width="50" height="50" relative="1" as="geometry">
            <mxPoint x="400" y="400" as="sourcePoint" />
            <mxPoint x="320" y="400" as="targetPoint" />
          </mxGeometry>
        </mxCell>
        <mxCell id="AtgH60uLK4HLd8rCisxl-19" value="FALSE" style="text;html=1;align=center;verticalAlign=middle;resizable=0;points=[];autosize=1;strokeColor=none;fillColor=none;" vertex="1" parent="WIyWlLk6GJQsqaUBKTNV-1">
          <mxGeometry x="320" y="368" width="60" height="30" as="geometry" />
        </mxCell>
        <mxCell id="AtgH60uLK4HLd8rCisxl-20" value="Raise format exception and display to use" style="rounded=1;whiteSpace=wrap;html=1;" vertex="1" parent="WIyWlLk6GJQsqaUBKTNV-1">
          <mxGeometry x="170" y="368" width="120" height="60" as="geometry" />
        </mxCell>
        <mxCell id="AtgH60uLK4HLd8rCisxl-22" value="" style="endArrow=none;html=1;rounded=0;exitX=0.5;exitY=0;exitDx=0;exitDy=0;" edge="1" parent="WIyWlLk6GJQsqaUBKTNV-1" source="AtgH60uLK4HLd8rCisxl-20">
          <mxGeometry width="50" height="50" relative="1" as="geometry">
            <mxPoint x="390" y="420" as="sourcePoint" />
            <mxPoint x="230" y="210" as="targetPoint" />
          </mxGeometry>
        </mxCell>
        <mxCell id="AtgH60uLK4HLd8rCisxl-23" value="" style="endArrow=classic;html=1;rounded=0;entryX=0;entryY=0.5;entryDx=0;entryDy=0;" edge="1" parent="WIyWlLk6GJQsqaUBKTNV-1" target="AtgH60uLK4HLd8rCisxl-4">
          <mxGeometry width="50" height="50" relative="1" as="geometry">
            <mxPoint x="230" y="210" as="sourcePoint" />
            <mxPoint x="440" y="370" as="targetPoint" />
            <Array as="points">
              <mxPoint x="290" y="210" />
            </Array>
          </mxGeometry>
        </mxCell>
        <mxCell id="AtgH60uLK4HLd8rCisxl-24" value="TRUE" style="text;html=1;align=center;verticalAlign=middle;resizable=0;points=[];autosize=1;strokeColor=none;fillColor=none;" vertex="1" parent="WIyWlLk6GJQsqaUBKTNV-1">
          <mxGeometry x="410" y="368" width="60" height="30" as="geometry" />
        </mxCell>
        <mxCell id="AtgH60uLK4HLd8rCisxl-26" value="" style="endArrow=none;html=1;rounded=0;" edge="1" parent="WIyWlLk6GJQsqaUBKTNV-1">
          <mxGeometry width="50" height="50" relative="1" as="geometry">
            <mxPoint x="400" y="400" as="sourcePoint" />
            <mxPoint x="740" y="400" as="targetPoint" />
          </mxGeometry>
        </mxCell>
        <mxCell id="AtgH60uLK4HLd8rCisxl-32" value="&lt;font style=&quot;font-size: 9px;&quot;&gt;IF number divides by 3 and 5&lt;/font&gt;&lt;div style=&quot;text-align: justify;&quot;&gt;&lt;/div&gt;" style="rhombus;whiteSpace=wrap;html=1;" vertex="1" parent="WIyWlLk6GJQsqaUBKTNV-1">
          <mxGeometry x="373.66" y="440" width="132.68" height="120" as="geometry" />
        </mxCell>
        <mxCell id="AtgH60uLK4HLd8rCisxl-38" value="" style="endArrow=classic;html=1;rounded=0;entryX=0.5;entryY=0;entryDx=0;entryDy=0;" edge="1" parent="WIyWlLk6GJQsqaUBKTNV-1" target="AtgH60uLK4HLd8rCisxl-32">
          <mxGeometry width="50" height="50" relative="1" as="geometry">
            <mxPoint x="440" y="400" as="sourcePoint" />
            <mxPoint x="450" y="380" as="targetPoint" />
          </mxGeometry>
        </mxCell>
        <mxCell id="AtgH60uLK4HLd8rCisxl-39" value="&lt;font style=&quot;font-size: 9px;&quot;&gt;IF number divides by 3&amp;nbsp;&lt;br&gt;&lt;/font&gt;&lt;div style=&quot;text-align: justify;&quot;&gt;&lt;/div&gt;" style="rhombus;whiteSpace=wrap;html=1;" vertex="1" parent="WIyWlLk6GJQsqaUBKTNV-1">
          <mxGeometry x="520" y="440" width="132.68" height="120" as="geometry" />
        </mxCell>
        <mxCell id="AtgH60uLK4HLd8rCisxl-40" value="" style="endArrow=classic;html=1;rounded=0;entryX=0.5;entryY=0;entryDx=0;entryDy=0;" edge="1" parent="WIyWlLk6GJQsqaUBKTNV-1" target="AtgH60uLK4HLd8rCisxl-39">
          <mxGeometry width="50" height="50" relative="1" as="geometry">
            <mxPoint x="586.34" y="400" as="sourcePoint" />
            <mxPoint x="596.34" y="380" as="targetPoint" />
          </mxGeometry>
        </mxCell>
        <mxCell id="AtgH60uLK4HLd8rCisxl-41" value="&lt;font style=&quot;font-size: 9px;&quot;&gt;IF number divides by 5&lt;/font&gt;&lt;div style=&quot;text-align: justify;&quot;&gt;&lt;/div&gt;" style="rhombus;whiteSpace=wrap;html=1;" vertex="1" parent="WIyWlLk6GJQsqaUBKTNV-1">
          <mxGeometry x="670" y="440" width="132.68" height="120" as="geometry" />
        </mxCell>
        <mxCell id="AtgH60uLK4HLd8rCisxl-42" value="" style="endArrow=classic;html=1;rounded=0;entryX=0.5;entryY=0;entryDx=0;entryDy=0;" edge="1" parent="WIyWlLk6GJQsqaUBKTNV-1" target="AtgH60uLK4HLd8rCisxl-41">
          <mxGeometry width="50" height="50" relative="1" as="geometry">
            <mxPoint x="736.3399999999999" y="400" as="sourcePoint" />
            <mxPoint x="746.3399999999999" y="380" as="targetPoint" />
          </mxGeometry>
        </mxCell>
        <mxCell id="AtgH60uLK4HLd8rCisxl-43" value="PRINT &quot;FizzBuzz&quot;" style="rounded=1;whiteSpace=wrap;html=1;" vertex="1" parent="WIyWlLk6GJQsqaUBKTNV-1">
          <mxGeometry x="380" y="585" width="120" height="60" as="geometry" />
        </mxCell>
        <mxCell id="AtgH60uLK4HLd8rCisxl-46" value="PRINT &quot;Fizz&quot;" style="rounded=1;whiteSpace=wrap;html=1;" vertex="1" parent="WIyWlLk6GJQsqaUBKTNV-1">
          <mxGeometry x="526.34" y="585" width="120" height="60" as="geometry" />
        </mxCell>
        <mxCell id="AtgH60uLK4HLd8rCisxl-47" value="PRINT &quot;Buzz&quot;" style="rounded=1;whiteSpace=wrap;html=1;" vertex="1" parent="WIyWlLk6GJQsqaUBKTNV-1">
          <mxGeometry x="676.34" y="585" width="120" height="60" as="geometry" />
        </mxCell>
        <mxCell id="AtgH60uLK4HLd8rCisxl-48" value="" style="endArrow=classic;html=1;rounded=0;exitX=0.5;exitY=1;exitDx=0;exitDy=0;entryX=0.5;entryY=0;entryDx=0;entryDy=0;" edge="1" parent="WIyWlLk6GJQsqaUBKTNV-1" source="AtgH60uLK4HLd8rCisxl-32" target="AtgH60uLK4HLd8rCisxl-43">
          <mxGeometry width="50" height="50" relative="1" as="geometry">
            <mxPoint x="400" y="430" as="sourcePoint" />
            <mxPoint x="450" y="380" as="targetPoint" />
          </mxGeometry>
        </mxCell>
        <mxCell id="AtgH60uLK4HLd8rCisxl-49" value="" style="endArrow=classic;html=1;rounded=0;exitX=0.5;exitY=1;exitDx=0;exitDy=0;entryX=0.5;entryY=0;entryDx=0;entryDy=0;" edge="1" parent="WIyWlLk6GJQsqaUBKTNV-1" source="AtgH60uLK4HLd8rCisxl-39" target="AtgH60uLK4HLd8rCisxl-46">
          <mxGeometry width="50" height="50" relative="1" as="geometry">
            <mxPoint x="400" y="430" as="sourcePoint" />
            <mxPoint x="586" y="580" as="targetPoint" />
          </mxGeometry>
        </mxCell>
        <mxCell id="AtgH60uLK4HLd8rCisxl-50" value="" style="endArrow=classic;html=1;rounded=0;exitX=0.5;exitY=1;exitDx=0;exitDy=0;entryX=0.5;entryY=0;entryDx=0;entryDy=0;" edge="1" parent="WIyWlLk6GJQsqaUBKTNV-1" source="AtgH60uLK4HLd8rCisxl-41" target="AtgH60uLK4HLd8rCisxl-47">
          <mxGeometry width="50" height="50" relative="1" as="geometry">
            <mxPoint x="400" y="430" as="sourcePoint" />
            <mxPoint x="736" y="600" as="targetPoint" />
            <Array as="points">
              <mxPoint x="736" y="580" />
            </Array>
          </mxGeometry>
        </mxCell>
        <mxCell id="AtgH60uLK4HLd8rCisxl-51" value="" style="endArrow=none;html=1;rounded=0;exitX=0.5;exitY=1;exitDx=0;exitDy=0;" edge="1" parent="WIyWlLk6GJQsqaUBKTNV-1" source="AtgH60uLK4HLd8rCisxl-43">
          <mxGeometry width="50" height="50" relative="1" as="geometry">
            <mxPoint x="410" y="428" as="sourcePoint" />
            <mxPoint x="440" y="720" as="targetPoint" />
          </mxGeometry>
        </mxCell>
        <mxCell id="AtgH60uLK4HLd8rCisxl-52" value="" style="endArrow=none;html=1;rounded=0;" edge="1" parent="WIyWlLk6GJQsqaUBKTNV-1">
          <mxGeometry width="50" height="50" relative="1" as="geometry">
            <mxPoint x="440" y="670" as="sourcePoint" />
            <mxPoint x="740" y="670" as="targetPoint" />
          </mxGeometry>
        </mxCell>
        <mxCell id="AtgH60uLK4HLd8rCisxl-53" value="" style="endArrow=none;html=1;rounded=0;exitX=0.5;exitY=1;exitDx=0;exitDy=0;" edge="1" parent="WIyWlLk6GJQsqaUBKTNV-1" source="AtgH60uLK4HLd8rCisxl-46">
          <mxGeometry width="50" height="50" relative="1" as="geometry">
            <mxPoint x="400" y="430" as="sourcePoint" />
            <mxPoint x="586" y="670" as="targetPoint" />
            <Array as="points">
              <mxPoint x="586" y="660" />
            </Array>
          </mxGeometry>
        </mxCell>
        <mxCell id="AtgH60uLK4HLd8rCisxl-54" value="" style="endArrow=none;html=1;rounded=0;" edge="1" parent="WIyWlLk6GJQsqaUBKTNV-1">
          <mxGeometry width="50" height="50" relative="1" as="geometry">
            <mxPoint x="740" y="650" as="sourcePoint" />
            <mxPoint x="740" y="670" as="targetPoint" />
          </mxGeometry>
        </mxCell>
        <mxCell id="AtgH60uLK4HLd8rCisxl-55" value="While True" style="rhombus;whiteSpace=wrap;html=1;" vertex="1" parent="WIyWlLk6GJQsqaUBKTNV-1">
          <mxGeometry x="350.75" y="170" width="99.5" height="80" as="geometry" />
        </mxCell>
        <mxCell id="AtgH60uLK4HLd8rCisxl-56" value="WHILE False" style="rhombus;whiteSpace=wrap;html=1;" vertex="1" parent="WIyWlLk6GJQsqaUBKTNV-1">
          <mxGeometry x="390.25" y="720" width="99.5" height="80" as="geometry" />
        </mxCell>
        <mxCell id="AtgH60uLK4HLd8rCisxl-57" value="END" style="ellipse;whiteSpace=wrap;html=1;" vertex="1" parent="WIyWlLk6GJQsqaUBKTNV-1">
          <mxGeometry x="380" y="840" width="121" height="80" as="geometry" />
        </mxCell>
        <mxCell id="AtgH60uLK4HLd8rCisxl-58" value="" style="endArrow=classic;html=1;rounded=0;entryX=0.5;entryY=0;entryDx=0;entryDy=0;exitX=0.5;exitY=1;exitDx=0;exitDy=0;" edge="1" parent="WIyWlLk6GJQsqaUBKTNV-1" source="AtgH60uLK4HLd8rCisxl-56" target="AtgH60uLK4HLd8rCisxl-57">
          <mxGeometry width="50" height="50" relative="1" as="geometry">
            <mxPoint x="400" y="700" as="sourcePoint" />
            <mxPoint x="450" y="650" as="targetPoint" />
          </mxGeometry>
        </mxCell>
      </root>
    </mxGraphModel>
  </diagram>
</mxfile>
